<svg xmlns="http://www.w3.org/2000/svg" xmlns:xlink="http://www.w3.org/1999/xlink" width="1366" zoomAndPan="magnify" viewBox="0 0 1024.5 576" height="768" preserveAspectRatio="xMidYMid meet" version="1.0"><defs><clipPath id="4d980d9057"><path d="M 0 0.140625 L 1024 0.140625 L 1024 575.859375 L 0 575.859375 Z M 0 0.140625 " clip-rule="nonzero"/></clipPath><radialGradient gradientTransform="matrix(1, 0, 0, 1, 0, 0.140508)" gradientUnits="userSpaceOnUse" r="587.372852" cx="512.000122" id="1d2e728764" cy="287.859512" fx="512.000122" fy="287.859512"><stop stop-opacity="1" stop-color="rgb(84.515381%, 35.38208%, 66.064453%)" offset="0"/><stop stop-opacity="1" stop-color="rgb(84.19342%, 35.527039%, 66.35437%)" offset="0.015625"/><stop stop-opacity="1" stop-color="rgb(83.918762%, 35.650635%, 66.603088%)" offset="0.0273438"/><stop stop-opacity="1" stop-color="rgb(83.642578%, 35.774231%, 66.850281%)" offset="0.0390625"/><stop stop-opacity="1" stop-color="rgb(83.36792%, 35.899353%, 67.098999%)" offset="0.0507812"/><stop stop-opacity="1" stop-color="rgb(83.091736%, 36.022949%, 67.347717%)" offset="0.0625"/><stop stop-opacity="1" stop-color="rgb(82.817078%, 36.148071%, 67.596436%)" offset="0.0742188"/><stop stop-opacity="1" stop-color="rgb(82.540894%, 36.271667%, 67.845154%)" offset="0.0859375"/><stop stop-opacity="1" stop-color="rgb(82.266235%, 36.39679%, 68.093872%)" offset="0.0976562"/><stop stop-opacity="1" stop-color="rgb(81.991577%, 36.520386%, 68.341064%)" offset="0.109375"/><stop stop-opacity="1" stop-color="rgb(81.715393%, 36.643982%, 68.589783%)" offset="0.121094"/><stop stop-opacity="1" stop-color="rgb(81.440735%, 36.769104%, 68.838501%)" offset="0.132812"/><stop stop-opacity="1" stop-color="rgb(81.164551%, 36.8927%, 69.087219%)" offset="0.144531"/><stop stop-opacity="1" stop-color="rgb(80.889893%, 37.017822%, 69.335938%)" offset="0.15625"/><stop stop-opacity="1" stop-color="rgb(80.613708%, 37.141418%, 69.58313%)" offset="0.167969"/><stop stop-opacity="1" stop-color="rgb(80.33905%, 37.265015%, 69.831848%)" offset="0.179688"/><stop stop-opacity="1" stop-color="rgb(80.062866%, 37.390137%, 70.080566%)" offset="0.191406"/><stop stop-opacity="1" stop-color="rgb(79.788208%, 37.513733%, 70.329285%)" offset="0.203125"/><stop stop-opacity="1" stop-color="rgb(79.512024%, 37.638855%, 70.578003%)" offset="0.214844"/><stop stop-opacity="1" stop-color="rgb(79.237366%, 37.762451%, 70.826721%)" offset="0.226562"/><stop stop-opacity="1" stop-color="rgb(78.961182%, 37.886047%, 71.073914%)" offset="0.238281"/><stop stop-opacity="1" stop-color="rgb(78.686523%, 38.011169%, 71.322632%)" offset="0.25"/><stop stop-opacity="1" stop-color="rgb(78.456116%, 38.114929%, 71.530151%)" offset="0.261719"/><stop stop-opacity="1" stop-color="rgb(78.27301%, 38.197327%, 71.694946%)" offset="0.269531"/><stop stop-opacity="1" stop-color="rgb(78.089905%, 38.279724%, 71.861267%)" offset="0.277344"/><stop stop-opacity="1" stop-color="rgb(77.905273%, 38.363647%, 72.027588%)" offset="0.285156"/><stop stop-opacity="1" stop-color="rgb(77.722168%, 38.446045%, 72.192383%)" offset="0.292969"/><stop stop-opacity="1" stop-color="rgb(77.539062%, 38.528442%, 72.358704%)" offset="0.300781"/><stop stop-opacity="1" stop-color="rgb(77.355957%, 38.61084%, 72.523499%)" offset="0.308594"/><stop stop-opacity="1" stop-color="rgb(77.171326%, 38.694763%, 72.689819%)" offset="0.316406"/><stop stop-opacity="1" stop-color="rgb(76.98822%, 38.777161%, 72.854614%)" offset="0.324219"/><stop stop-opacity="1" stop-color="rgb(76.805115%, 38.859558%, 73.020935%)" offset="0.332031"/><stop stop-opacity="1" stop-color="rgb(76.620483%, 38.943481%, 73.18573%)" offset="0.339844"/><stop stop-opacity="1" stop-color="rgb(76.437378%, 39.025879%, 73.352051%)" offset="0.347656"/><stop stop-opacity="1" stop-color="rgb(76.254272%, 39.108276%, 73.516846%)" offset="0.355469"/><stop stop-opacity="1" stop-color="rgb(76.069641%, 39.190674%, 73.683167%)" offset="0.363281"/><stop stop-opacity="1" stop-color="rgb(75.886536%, 39.274597%, 73.849487%)" offset="0.371094"/><stop stop-opacity="1" stop-color="rgb(75.610352%, 39.398193%, 74.09668%)" offset="0.378906"/><stop stop-opacity="1" stop-color="rgb(75.244141%, 39.562988%, 74.427795%)" offset="0.394531"/><stop stop-opacity="1" stop-color="rgb(74.876404%, 39.729309%, 74.758911%)" offset="0.410156"/><stop stop-opacity="1" stop-color="rgb(74.508667%, 39.89563%, 75.090027%)" offset="0.425781"/><stop stop-opacity="1" stop-color="rgb(74.142456%, 40.060425%, 75.422668%)" offset="0.441406"/><stop stop-opacity="1" stop-color="rgb(73.774719%, 40.226746%, 75.753784%)" offset="0.457031"/><stop stop-opacity="1" stop-color="rgb(73.406982%, 40.391541%, 76.0849%)" offset="0.472656"/><stop stop-opacity="1" stop-color="rgb(73.040771%, 40.557861%, 76.416016%)" offset="0.488281"/><stop stop-opacity="1" stop-color="rgb(72.718811%, 40.70282%, 76.705933%)" offset="0.503906"/><stop stop-opacity="1" stop-color="rgb(72.444153%, 40.826416%, 76.954651%)" offset="0.515625"/><stop stop-opacity="1" stop-color="rgb(72.167969%, 40.950012%, 77.201843%)" offset="0.527344"/><stop stop-opacity="1" stop-color="rgb(71.893311%, 41.075134%, 77.450562%)" offset="0.539062"/><stop stop-opacity="1" stop-color="rgb(71.617126%, 41.19873%, 77.69928%)" offset="0.550781"/><stop stop-opacity="1" stop-color="rgb(71.342468%, 41.323853%, 77.947998%)" offset="0.5625"/><stop stop-opacity="1" stop-color="rgb(71.066284%, 41.447449%, 78.196716%)" offset="0.574219"/><stop stop-opacity="1" stop-color="rgb(70.791626%, 41.572571%, 78.445435%)" offset="0.585938"/><stop stop-opacity="1" stop-color="rgb(70.516968%, 41.696167%, 78.692627%)" offset="0.597656"/><stop stop-opacity="1" stop-color="rgb(70.240784%, 41.819763%, 78.941345%)" offset="0.609375"/><stop stop-opacity="1" stop-color="rgb(69.966125%, 41.944885%, 79.190063%)" offset="0.621094"/><stop stop-opacity="1" stop-color="rgb(69.735718%, 42.048645%, 79.397583%)" offset="0.632812"/><stop stop-opacity="1" stop-color="rgb(69.552612%, 42.131042%, 79.562378%)" offset="0.640625"/><stop stop-opacity="1" stop-color="rgb(69.369507%, 42.21344%, 79.728699%)" offset="0.648438"/><stop stop-opacity="1" stop-color="rgb(69.184875%, 42.297363%, 79.893494%)" offset="0.65625"/><stop stop-opacity="1" stop-color="rgb(69.00177%, 42.379761%, 80.059814%)" offset="0.664062"/><stop stop-opacity="1" stop-color="rgb(68.818665%, 42.462158%, 80.226135%)" offset="0.671875"/><stop stop-opacity="1" stop-color="rgb(68.634033%, 42.544556%, 80.39093%)" offset="0.679688"/><stop stop-opacity="1" stop-color="rgb(68.450928%, 42.628479%, 80.557251%)" offset="0.6875"/><stop stop-opacity="1" stop-color="rgb(68.174744%, 42.752075%, 80.804443%)" offset="0.695312"/><stop stop-opacity="1" stop-color="rgb(67.808533%, 42.91687%, 81.135559%)" offset="0.710938"/><stop stop-opacity="1" stop-color="rgb(67.440796%, 43.083191%, 81.466675%)" offset="0.726562"/><stop stop-opacity="1" stop-color="rgb(67.073059%, 43.249512%, 81.797791%)" offset="0.742188"/><stop stop-opacity="1" stop-color="rgb(66.752625%, 43.39447%, 82.087708%)" offset="0.757812"/><stop stop-opacity="1" stop-color="rgb(66.47644%, 43.518066%, 82.336426%)" offset="0.769531"/><stop stop-opacity="1" stop-color="rgb(66.201782%, 43.641663%, 82.585144%)" offset="0.78125"/><stop stop-opacity="1" stop-color="rgb(65.927124%, 43.766785%, 82.833862%)" offset="0.792969"/><stop stop-opacity="1" stop-color="rgb(65.65094%, 43.890381%, 83.082581%)" offset="0.804688"/><stop stop-opacity="1" stop-color="rgb(65.422058%, 43.994141%, 83.2901%)" offset="0.816406"/><stop stop-opacity="1" stop-color="rgb(65.237427%, 44.076538%, 83.454895%)" offset="0.824219"/><stop stop-opacity="1" stop-color="rgb(65.054321%, 44.160461%, 83.621216%)" offset="0.832031"/><stop stop-opacity="1" stop-color="rgb(64.871216%, 44.242859%, 83.786011%)" offset="0.839844"/><stop stop-opacity="1" stop-color="rgb(64.595032%, 44.366455%, 84.034729%)" offset="0.847656"/><stop stop-opacity="1" stop-color="rgb(64.227295%, 44.532776%, 84.365845%)" offset="0.863281"/><stop stop-opacity="1" stop-color="rgb(63.90686%, 44.677734%, 84.655762%)" offset="0.878906"/><stop stop-opacity="1" stop-color="rgb(63.632202%, 44.801331%, 84.90448%)" offset="0.890625"/><stop stop-opacity="1" stop-color="rgb(63.356018%, 44.926453%, 85.153198%)" offset="0.902344"/><stop stop-opacity="1" stop-color="rgb(63.127136%, 45.030212%, 85.359192%)" offset="0.914062"/><stop stop-opacity="1" stop-color="rgb(62.942505%, 45.11261%, 85.525513%)" offset="0.921875"/><stop stop-opacity="1" stop-color="rgb(62.667847%, 45.236206%, 85.774231%)" offset="0.929688"/><stop stop-opacity="1" stop-color="rgb(62.345886%, 45.381165%, 86.064148%)" offset="0.945312"/><stop stop-opacity="1" stop-color="rgb(62.117004%, 45.484924%, 86.270142%)" offset="0.957031"/><stop stop-opacity="1" stop-color="rgb(61.84082%, 45.608521%, 86.51886%)" offset="0.964844"/><stop stop-opacity="1" stop-color="rgb(61.566162%, 45.733643%, 86.767578%)" offset="0.980469"/><stop stop-opacity="1" stop-color="rgb(61.33728%, 45.837402%, 86.975098%)" offset="0.988281"/><stop stop-opacity="1" stop-color="rgb(61.199951%, 45.899963%, 87.098694%)" offset="1"/></radialGradient></defs><g clip-path="url(#4d980d9057)"><path fill="#ffffff" d="M 0 0.140625 L 1024 0.140625 L 1024 575.859375 L 0 575.859375 Z M 0 0.140625 " fill-opacity="1" fill-rule="nonzero"/><path fill="url(#1d2e728764)" d="M 0 0.140625 L 0 575.859375 L 1024 575.859375 L 1024 0.140625 Z M 0 0.140625 " fill-rule="nonzero"/></g><path fill="#ffffff" d="M 572.941406 232.804688 C 572.941406 232.804688 573.464844 250.292969 573.464844 250.292969 C 573.464844 250.292969 606.515625 254.664062 608.4375 260.082031 C 610.359375 265.503906 609.488281 276.871094 609.488281 276.871094 C 609.488281 276.871094 629.246094 264.457031 629.246094 264.457031 C 629.246094 264.457031 629.070312 247.667969 627.148438 244.347656 C 625.222656 241.023438 572.941406 232.804688 572.941406 232.804688 Z M 572.941406 232.804688 " fill-opacity="1" fill-rule="nonzero"/><path fill="#000000" d="M 627.675781 265.378906 C 628.460938 265.484375 629.605469 262.8125 630.414062 258.058594 C 630.617188 256.871094 630.78125 255.550781 630.90625 254.101562 C 630.929688 253.738281 630.957031 253.367188 630.984375 252.992188 C 631 252.613281 631.019531 252.226562 631.035156 251.835938 C 631.046875 251.027344 631.097656 250.300781 630.988281 249.21875 C 630.960938 248.964844 630.960938 248.710938 630.90625 248.449219 C 630.851562 248.1875 630.796875 247.925781 630.742188 247.660156 C 630.652344 247.125 630.445312 246.589844 630.253906 246.046875 C 630.167969 245.769531 630.027344 245.507812 629.894531 245.242188 C 629.757812 244.976562 629.628906 244.703125 629.472656 244.441406 C 629.136719 243.9375 628.804688 243.40625 628.375 242.949219 C 627.554688 242.003906 626.554688 241.183594 625.457031 240.566406 C 625.183594 240.410156 624.902344 240.273438 624.617188 240.128906 C 624.332031 239.996094 624.039062 239.875 623.742188 239.753906 C 623.441406 239.648438 623.144531 239.535156 622.824219 239.445312 C 622.667969 239.398438 622.511719 239.351562 622.339844 239.3125 C 622.339844 239.3125 622.085938 239.253906 622.085938 239.253906 C 622.085938 239.253906 621.773438 239.191406 621.773438 239.191406 C 621.773438 239.191406 621.769531 239.1875 621.769531 239.1875 C 621.769531 239.1875 621.765625 239.183594 621.765625 239.183594 C 620.898438 238.960938 620.015625 238.738281 619.121094 238.507812 C 618.207031 238.28125 617.277344 238.054688 616.339844 237.824219 C 614.457031 237.367188 612.527344 236.910156 610.554688 236.464844 C 590.03125 231.804688 573.035156 229.601562 572.59375 231.542969 C 572.152344 233.488281 588.433594 238.839844 608.960938 243.5 C 610.929688 243.945312 612.867188 244.371094 614.761719 244.769531 C 615.710938 244.96875 616.644531 245.160156 617.566406 245.351562 C 618.511719 245.542969 619.441406 245.726562 620.355469 245.910156 C 620.355469 245.910156 620.535156 245.941406 620.535156 245.941406 C 620.535156 245.941406 620.71875 245.96875 620.71875 245.96875 C 620.71875 245.96875 620.753906 245.972656 620.753906 245.972656 C 620.753906 245.972656 620.851562 245.988281 620.851562 245.988281 C 620.910156 245.996094 620.984375 246.011719 621.054688 246.027344 C 621.195312 246.050781 621.339844 246.101562 621.488281 246.136719 C 621.628906 246.183594 621.773438 246.230469 621.914062 246.277344 C 622.046875 246.339844 622.1875 246.386719 622.320312 246.449219 C 622.855469 246.683594 623.300781 246.992188 623.675781 247.339844 C 623.886719 247.496094 624.023438 247.707031 624.207031 247.890625 C 624.285156 247.992188 624.34375 248.105469 624.421875 248.207031 C 624.492188 248.3125 624.578125 248.410156 624.625 248.535156 C 624.738281 248.777344 624.886719 248.996094 624.960938 249.269531 C 625.007812 249.398438 625.058594 249.53125 625.105469 249.660156 C 625.160156 249.785156 625.171875 249.941406 625.207031 250.078125 C 625.351562 250.570312 625.445312 251.390625 625.542969 252.078125 C 625.585938 252.433594 625.628906 252.78125 625.671875 253.125 C 625.707031 253.472656 625.746094 253.8125 625.78125 254.144531 C 625.921875 255.484375 626.039062 256.738281 626.136719 257.882812 C 626.535156 262.472656 626.875 265.277344 627.675781 265.378906 Z M 627.675781 265.378906 " fill-opacity="1" fill-rule="nonzero"/><path fill="#ffffff" d="M 572.242188 249.855469 C 572.242188 249.855469 605.027344 255.886719 607.652344 260.871094 C 610.273438 265.855469 609.488281 279.757812 609.488281 279.757812 C 609.488281 279.757812 571.453125 298.902344 571.453125 298.902344 C 571.453125 298.902344 572.242188 249.855469 572.242188 249.855469 " fill-opacity="1" fill-rule="nonzero"/><path fill="#000000" d="M 608.09375 279.632812 C 609.03125 279.753906 610.328125 276.945312 611.175781 272.097656 C 611.386719 270.886719 611.558594 269.542969 611.671875 268.082031 C 611.730469 267.351562 611.765625 266.589844 611.789062 265.800781 C 611.792969 265.402344 611.796875 264.996094 611.800781 264.589844 C 611.800781 264.589844 611.800781 264.433594 611.800781 264.433594 C 611.800781 264.433594 611.785156 264.246094 611.785156 264.246094 C 611.785156 264.246094 611.757812 263.867188 611.757812 263.867188 C 611.738281 263.613281 611.714844 263.359375 611.691406 263.105469 C 611.679688 262.847656 611.621094 262.585938 611.566406 262.320312 C 611.507812 262.054688 611.449219 261.785156 611.390625 261.515625 C 611.339844 261.25 611.230469 260.980469 611.140625 260.707031 C 611.042969 260.4375 610.941406 260.164062 610.839844 259.890625 C 610.335938 258.824219 609.707031 257.738281 608.828125 256.839844 C 607.976562 255.925781 606.964844 255.144531 605.867188 254.554688 C 605.59375 254.417969 605.316406 254.277344 605.03125 254.144531 C 604.746094 254.027344 604.460938 253.902344 604.167969 253.796875 C 603.871094 253.695312 603.574219 253.59375 603.261719 253.511719 C 603.109375 253.46875 602.953125 253.425781 602.785156 253.390625 C 602.785156 253.390625 602.535156 253.335938 602.535156 253.335938 C 602.535156 253.335938 602.226562 253.277344 602.226562 253.277344 C 601.757812 253.164062 601.285156 253.050781 600.8125 252.941406 C 585.726562 249.421875 573.136719 248.140625 572.683594 250.078125 C 572.230469 252.019531 584.089844 256.445312 599.171875 259.964844 C 599.691406 260.082031 600.207031 260.203125 600.714844 260.320312 C 600.714844 260.320312 600.910156 260.351562 600.910156 260.351562 C 600.910156 260.351562 601.105469 260.386719 601.105469 260.386719 C 601.117188 260.390625 601.113281 260.386719 601.132812 260.394531 C 601.132812 260.394531 601.222656 260.410156 601.222656 260.410156 C 601.277344 260.421875 601.34375 260.4375 601.410156 260.453125 C 601.539062 260.480469 601.675781 260.53125 601.808594 260.570312 C 601.941406 260.609375 602.070312 260.667969 602.203125 260.710938 C 602.328125 260.765625 602.453125 260.824219 602.582031 260.875 C 603.070312 261.109375 603.476562 261.398438 603.828125 261.710938 C 604.203125 262.011719 604.441406 262.40625 604.714844 262.796875 C 604.761719 262.90625 604.816406 263.015625 604.871094 263.125 C 604.921875 263.238281 604.996094 263.332031 605.027344 263.464844 C 605.066406 263.585938 605.109375 263.710938 605.152344 263.832031 C 605.199219 263.949219 605.25 264.070312 605.269531 264.210938 C 605.300781 264.34375 605.328125 264.476562 605.359375 264.609375 C 605.359375 264.609375 605.40625 264.808594 605.40625 264.808594 C 605.40625 264.808594 605.433594 264.910156 605.433594 264.910156 C 605.433594 264.910156 605.449219 265.042969 605.449219 265.042969 C 605.5 265.398438 605.546875 265.753906 605.597656 266.101562 C 605.679688 266.800781 605.769531 267.484375 605.839844 268.15625 C 605.988281 269.492188 606.113281 270.75 606.226562 271.910156 C 606.683594 276.546875 607.132812 279.507812 608.09375 279.632812 Z M 608.09375 279.632812 " fill-opacity="1" fill-rule="nonzero"/><path fill="#ffffff" d="M 425.972656 254.878906 C 425.972656 254.878906 425.445312 206.265625 425.445312 206.265625 C 425.445312 206.265625 424.921875 199.449219 435.9375 201.546875 C 435.9375 201.546875 436.988281 190.003906 446.957031 192.101562 C 456.921875 194.203125 483.152344 198.398438 485.773438 201.019531 C 488.398438 203.644531 491.019531 214.660156 491.019531 214.660156 C 491.019531 214.660156 562.628906 229.613281 562.628906 229.613281 C 562.628906 229.613281 570.496094 231.183594 571.285156 237.480469 C 572.070312 243.777344 571.890625 348.292969 571.890625 348.292969 " fill-opacity="1" fill-rule="nonzero"/><path fill="#000000" d="M 571.890625 348.292969 C 572.882812 348.296875 573.828125 329.84375 574.441406 300.003906 C 574.59375 292.542969 574.71875 284.371094 574.8125 275.59375 C 574.898438 266.816406 574.96875 257.445312 574.914062 247.550781 C 574.90625 246.3125 574.894531 245.066406 574.886719 243.816406 C 574.863281 242.550781 574.839844 241.277344 574.816406 240 C 574.8125 239.691406 574.792969 239.328125 574.773438 238.96875 C 574.773438 238.96875 574.714844 237.898438 574.714844 237.898438 C 574.714844 237.898438 574.683594 237.359375 574.683594 237.359375 C 574.683594 237.359375 574.667969 237.09375 574.667969 237.09375 C 574.660156 236.996094 574.636719 236.871094 574.621094 236.761719 C 574.558594 236.308594 574.453125 235.855469 574.339844 235.40625 C 573.839844 233.597656 572.820312 231.933594 571.585938 230.660156 C 570.351562 229.378906 568.945312 228.4375 567.507812 227.707031 C 566.785156 227.339844 566.050781 227.035156 565.300781 226.765625 C 564.921875 226.632812 564.542969 226.511719 564.144531 226.398438 C 563.945312 226.339844 563.746094 226.289062 563.515625 226.234375 C 563.515625 226.234375 562.953125 226.113281 562.953125 226.113281 C 560.378906 225.558594 557.777344 225.003906 555.15625 224.441406 C 544.660156 222.203125 533.792969 219.90625 522.652344 217.582031 C 517.363281 216.484375 512.136719 215.398438 506.980469 214.328125 C 504.398438 213.792969 501.839844 213.265625 499.296875 212.742188 C 498.023438 212.480469 496.757812 212.222656 495.496094 211.964844 C 494.972656 211.855469 494.453125 211.75 493.933594 211.644531 C 493.933594 211.644531 493.898438 211.644531 493.898438 211.644531 C 493.898438 211.644531 493.882812 211.613281 493.882812 211.613281 C 493.734375 211.105469 493.589844 210.597656 493.445312 210.089844 C 493.085938 208.867188 492.699219 207.648438 492.28125 206.433594 C 491.859375 205.214844 491.394531 203.996094 490.84375 202.757812 C 490.84375 202.757812 490.402344 201.816406 490.402344 201.816406 C 490.246094 201.5 490.054688 201.167969 489.882812 200.84375 C 489.882812 200.84375 489.746094 200.601562 489.746094 200.601562 C 489.746094 200.601562 489.578125 200.339844 489.578125 200.339844 C 489.578125 200.339844 489.238281 199.816406 489.238281 199.816406 C 489.238281 199.816406 489.0625 199.558594 489.0625 199.558594 C 489.0625 199.558594 488.820312 199.257812 488.820312 199.257812 C 488.820312 199.257812 488.226562 198.574219 488.226562 198.574219 C 487.988281 198.382812 487.753906 198.183594 487.511719 197.996094 C 487.511719 197.996094 486.726562 197.515625 486.726562 197.515625 C 486.460938 197.359375 486.285156 197.296875 486.082031 197.199219 C 486.082031 197.199219 485.789062 197.066406 485.789062 197.066406 C 485.789062 197.066406 485.523438 196.960938 485.523438 196.960938 C 485.523438 196.960938 484.988281 196.75 484.988281 196.75 C 484.988281 196.75 484.480469 196.570312 484.480469 196.570312 C 484.136719 196.449219 483.8125 196.347656 483.488281 196.246094 C 482.191406 195.847656 480.941406 195.523438 479.703125 195.214844 C 477.230469 194.617188 474.8125 194.101562 472.421875 193.625 C 467.644531 192.667969 462.992188 191.84375 458.472656 191.050781 C 456.21875 190.652344 453.996094 190.261719 451.808594 189.875 C 450.722656 189.675781 449.644531 189.480469 448.578125 189.285156 C 448.578125 189.285156 447.789062 189.132812 447.789062 189.132812 C 447.789062 189.132812 447.589844 189.097656 447.589844 189.097656 C 447.589844 189.097656 447.339844 189.054688 447.339844 189.054688 C 447.339844 189.054688 446.835938 188.972656 446.835938 188.972656 C 446.507812 188.910156 446.160156 188.882812 445.8125 188.855469 C 445.640625 188.84375 445.46875 188.824219 445.292969 188.816406 C 445.292969 188.816406 444.757812 188.8125 444.757812 188.8125 C 443.339844 188.8125 441.832031 189.066406 440.4375 189.664062 C 439.046875 190.265625 437.816406 191.183594 436.871094 192.226562 C 435.925781 193.269531 435.21875 194.410156 434.691406 195.554688 C 434.421875 196.125 434.195312 196.699219 434.003906 197.273438 C 433.957031 197.417969 433.90625 197.5625 433.867188 197.707031 C 433.835938 197.800781 433.835938 197.796875 433.832031 197.816406 C 433.832031 197.816406 433.824219 197.855469 433.824219 197.855469 C 433.824219 197.855469 433.796875 198.015625 433.796875 198.015625 C 433.773438 198.144531 433.757812 198.28125 433.75 198.421875 C 433.753906 198.449219 433.730469 198.4375 433.71875 198.4375 C 433.71875 198.4375 433.667969 198.433594 433.667969 198.433594 C 433.667969 198.433594 433.574219 198.425781 433.574219 198.425781 C 433.574219 198.425781 433.375 198.414062 433.375 198.414062 C 433.09375 198.40625 432.816406 198.402344 432.539062 198.398438 C 432.210938 198.390625 431.867188 198.410156 431.53125 198.417969 C 431.1875 198.441406 430.84375 198.464844 430.5 198.507812 C 429.800781 198.59375 429.089844 198.734375 428.371094 198.957031 C 427.652344 199.191406 426.921875 199.507812 426.226562 199.953125 C 425.535156 200.398438 424.886719 200.980469 424.363281 201.664062 C 423.839844 202.347656 423.457031 203.121094 423.214844 203.902344 C 423.09375 204.296875 423.003906 204.691406 422.949219 205.09375 C 422.898438 205.496094 422.867188 205.894531 422.890625 206.378906 C 422.910156 206.90625 422.925781 207.425781 422.945312 207.945312 C 423.089844 212.089844 423.230469 216.011719 423.363281 219.683594 C 423.644531 227.03125 423.9375 233.390625 424.230469 238.605469 C 424.816406 249.035156 425.410156 254.886719 425.972656 254.878906 C 426.53125 254.875 427 249.007812 427.359375 238.535156 C 427.542969 233.300781 427.695312 226.910156 427.820312 219.527344 C 427.871094 215.835938 427.925781 211.894531 427.984375 207.730469 C 427.988281 207.207031 427.996094 206.683594 428 206.15625 C 428.003906 206.113281 428.015625 205.980469 428.039062 205.859375 C 428.066406 205.738281 428.101562 205.613281 428.144531 205.5 C 428.324219 205.03125 428.59375 204.730469 429.054688 204.457031 C 429.289062 204.320312 429.582031 204.207031 429.921875 204.109375 C 430.265625 204.023438 430.65625 203.957031 431.074219 203.921875 C 431.285156 203.90625 431.507812 203.902344 431.726562 203.890625 C 431.957031 203.898438 432.175781 203.890625 432.414062 203.90625 C 432.414062 203.90625 432.769531 203.929688 432.769531 203.929688 C 432.769531 203.929688 432.894531 203.933594 432.894531 203.933594 C 432.996094 203.941406 433.03125 203.945312 433.101562 203.953125 C 433.101562 203.953125 433.484375 204.003906 433.484375 204.003906 C 433.992188 204.078125 434.5 204.125 435.019531 204.222656 C 435.019531 204.222656 435.621094 203.871094 435.621094 203.871094 C 435.820312 203.753906 436.039062 203.621094 436.175781 203.550781 C 436.175781 203.550781 436.640625 203.304688 436.640625 203.304688 C 436.640625 203.304688 436.875 203.179688 436.875 203.179688 C 436.949219 203.136719 437.042969 203.101562 437.082031 203.042969 C 437.488281 202.625 438.039062 202.113281 438.847656 201.414062 C 438.894531 201.1875 438.925781 200.949219 438.980469 200.726562 C 438.980469 200.726562 439.144531 200.058594 439.144531 200.058594 C 439.175781 199.949219 439.210938 199.839844 439.242188 199.730469 C 439.242188 199.730469 439.324219 199.476562 439.324219 199.476562 C 439.355469 199.378906 439.394531 199.28125 439.429688 199.1875 C 439.574219 198.800781 439.734375 198.425781 439.917969 198.074219 C 440.273438 197.363281 440.707031 196.746094 441.183594 196.253906 C 441.660156 195.765625 442.179688 195.429688 442.746094 195.195312 C 443.320312 194.980469 443.96875 194.878906 444.710938 194.902344 C 444.710938 194.902344 444.988281 194.910156 444.988281 194.910156 C 445.082031 194.914062 445.179688 194.929688 445.277344 194.941406 C 445.46875 194.964844 445.664062 194.976562 445.867188 195.027344 C 445.867188 195.027344 446.171875 195.085938 446.171875 195.085938 C 446.171875 195.085938 446.324219 195.113281 446.324219 195.113281 C 446.324219 195.113281 446.527344 195.15625 446.527344 195.15625 C 446.800781 195.21875 447.074219 195.277344 447.347656 195.335938 C 448.433594 195.566406 449.527344 195.792969 450.628906 196.027344 C 452.816406 196.464844 455.039062 196.910156 457.292969 197.363281 C 461.785156 198.253906 466.386719 199.167969 471.046875 200.183594 C 473.378906 200.691406 475.71875 201.230469 478.03125 201.828125 C 479.179688 202.132812 480.328125 202.449219 481.402344 202.800781 C 481.671875 202.886719 481.941406 202.972656 482.1875 203.066406 C 482.1875 203.066406 482.5625 203.203125 482.5625 203.203125 C 482.5625 203.203125 482.898438 203.34375 482.898438 203.34375 C 482.898438 203.34375 483.066406 203.410156 483.066406 203.410156 C 483.066406 203.410156 483.199219 203.472656 483.199219 203.472656 C 483.199219 203.472656 483.398438 203.570312 483.398438 203.570312 C 483.414062 203.574219 483.414062 203.59375 483.425781 203.597656 C 483.425781 203.597656 483.398438 203.578125 483.414062 203.597656 C 483.429688 203.613281 483.441406 203.628906 483.460938 203.644531 C 483.460938 203.644531 483.53125 203.757812 483.53125 203.757812 C 483.53125 203.757812 483.675781 203.996094 483.675781 203.996094 C 483.675781 203.996094 483.753906 204.109375 483.753906 204.109375 C 483.753906 204.109375 483.832031 204.261719 483.832031 204.261719 C 483.9375 204.472656 484.046875 204.660156 484.15625 204.886719 C 484.15625 204.886719 484.476562 205.582031 484.476562 205.582031 C 484.890625 206.558594 485.28125 207.609375 485.648438 208.695312 C 486.007812 209.789062 486.351562 210.90625 486.675781 212.042969 C 486.675781 212.042969 486.914062 212.898438 486.914062 212.898438 C 486.914062 212.898438 487.226562 214.078125 487.226562 214.078125 C 487.53125 215.261719 487.820312 216.464844 488.105469 217.667969 C 498.816406 219.925781 509.875 222.257812 521.191406 224.644531 C 532.335938 226.972656 543.21875 229.21875 553.738281 231.363281 C 556.367188 231.898438 558.972656 232.429688 561.554688 232.957031 C 561.554688 232.957031 561.957031 233.039062 561.957031 233.039062 C 562.046875 233.058594 562.167969 233.085938 562.28125 233.117188 C 562.519531 233.183594 562.765625 233.257812 563.007812 233.339844 C 563.488281 233.507812 563.96875 233.699219 564.410156 233.917969 C 565.304688 234.351562 566.078125 234.882812 566.640625 235.457031 C 567.207031 236.03125 567.5625 236.621094 567.765625 237.273438 C 567.804688 237.445312 567.855469 237.609375 567.878906 237.789062 C 567.886719 237.835938 567.898438 237.867188 567.902344 237.929688 C 567.902344 237.929688 567.914062 238.136719 567.914062 238.136719 C 567.914062 238.136719 567.941406 238.550781 567.941406 238.550781 C 567.941406 238.550781 567.996094 239.378906 567.996094 239.378906 C 568.015625 239.652344 568.035156 239.917969 568.042969 240.242188 C 568.089844 241.488281 568.132812 242.726562 568.175781 243.957031 C 568.207031 245.199219 568.238281 246.433594 568.269531 247.660156 C 568.503906 257.484375 568.65625 266.859375 568.832031 275.621094 C 568.996094 284.386719 569.167969 292.554688 569.339844 300.011719 C 570.035156 329.839844 570.890625 348.292969 571.890625 348.292969 Z M 571.890625 348.292969 " fill-opacity="1" fill-rule="nonzero"/><path fill="#ffffff" d="M 418.710938 301.425781 C 417.839844 300.554688 418.207031 238.4375 430.464844 242.5625 C 442.726562 246.683594 467.644531 248.855469 470.335938 251.480469 C 473.03125 254.101562 475.726562 265.117188 475.726562 265.117188 C 475.726562 265.117188 549.269531 280.070312 549.269531 280.070312 C 549.269531 280.070312 557.351562 281.644531 558.160156 287.9375 C 558.96875 294.234375 558.601562 325.308594 558.601562 325.308594 " fill-opacity="1" fill-rule="nonzero"/><path fill="#000000" d="M 558.601562 340.546875 C 559.097656 340.550781 559.609375 337.675781 560.070312 332.46875 C 560.296875 329.863281 560.511719 311.4375 560.695312 307.730469 C 560.875 304.023438 561.039062 299.804688 561.085938 295.105469 C 561.101562 293.933594 561.097656 292.71875 561.085938 291.480469 C 561.078125 290.859375 561.054688 290.214844 561.039062 289.570312 C 561.035156 289.253906 561.007812 288.90625 560.984375 288.558594 C 560.960938 288.207031 560.945312 287.878906 560.90625 287.5 C 560.71875 285.777344 560.015625 284.003906 558.941406 282.570312 C 557.875 281.128906 556.515625 280.019531 555.089844 279.160156 C 554.371094 278.726562 553.632812 278.351562 552.875 278.027344 C 552.113281 277.703125 551.34375 277.425781 550.511719 277.195312 C 550.304688 277.136719 550.078125 277.078125 549.824219 277.023438 C 549.824219 277.023438 549.304688 276.90625 549.304688 276.90625 C 548.957031 276.828125 548.605469 276.75 548.257812 276.671875 C 547.554688 276.515625 546.847656 276.355469 546.136719 276.195312 C 543.289062 275.566406 540.359375 274.921875 537.355469 274.257812 C 525.328125 271.625 512.085938 268.832031 498.167969 266 C 494.433594 265.25 490.746094 264.507812 487.117188 263.777344 C 485.300781 263.414062 483.5 263.058594 481.714844 262.703125 C 480.820312 262.527344 479.933594 262.355469 479.046875 262.179688 C 479.046875 262.179688 478.714844 262.113281 478.714844 262.113281 C 478.714844 262.113281 478.632812 262.097656 478.632812 262.097656 C 478.613281 262.09375 478.625 262.097656 478.621094 262.097656 C 478.621094 262.097656 478.617188 262.097656 478.617188 262.097656 C 478.617188 262.097656 478.601562 262.097656 478.601562 262.097656 C 478.601562 262.097656 478.570312 262.101562 478.570312 262.101562 C 478.570312 262.101562 478.554688 262.082031 478.554688 262.082031 C 478.546875 262.070312 478.550781 262.089844 478.523438 262.007812 C 478.425781 261.671875 478.328125 261.339844 478.230469 261.007812 C 478.121094 260.652344 478.015625 260.300781 477.90625 259.949219 C 477.464844 258.539062 476.988281 257.144531 476.457031 255.753906 C 475.90625 254.355469 475.335938 252.980469 474.511719 251.519531 C 474.296875 251.152344 474.070312 250.78125 473.792969 250.386719 C 473.648438 250.183594 473.527344 250.011719 473.320312 249.761719 C 473.109375 249.484375 472.875 249.269531 472.644531 249.035156 C 472.390625 248.832031 472.144531 248.621094 471.867188 248.445312 C 471.589844 248.285156 471.300781 248.105469 471.035156 247.960938 C 471.035156 247.960938 470.402344 247.675781 470.402344 247.675781 C 470.1875 247.578125 470.015625 247.523438 469.820312 247.449219 C 468.316406 246.894531 466.984375 246.550781 465.648438 246.210938 C 464.320312 245.882812 463.019531 245.589844 461.742188 245.324219 C 459.183594 244.789062 456.703125 244.335938 454.285156 243.910156 C 449.460938 243.066406 444.90625 242.363281 440.675781 241.726562 C 438.566406 241.410156 436.53125 241.109375 434.582031 240.816406 C 433.613281 240.667969 432.664062 240.523438 431.738281 240.378906 C 431.507812 240.34375 431.28125 240.308594 431.054688 240.269531 C 430.957031 240.253906 430.78125 240.234375 430.632812 240.214844 C 430.632812 240.214844 430.175781 240.167969 430.175781 240.167969 C 430.175781 240.167969 429.71875 240.121094 429.71875 240.121094 C 429.566406 240.117188 429.40625 240.125 429.25 240.128906 C 428.941406 240.144531 428.632812 240.128906 428.324219 240.179688 C 427.082031 240.316406 425.914062 240.796875 424.960938 241.394531 C 423.980469 241.996094 423.25 242.753906 422.628906 243.496094 C 421.414062 245.011719 420.683594 246.546875 420.136719 247.976562 C 419.59375 249.40625 419.234375 251.351562 418.964844 252.585938 C 418.695312 253.820312 418.527344 274.605469 418.414062 275.617188 C 418.183594 277.644531 418.167969 279.816406 418.246094 280.882812 C 418.320312 281.945312 418.496094 282.507812 418.710938 282.523438 C 418.925781 282.539062 419.171875 282.023438 419.5 281.035156 C 419.828125 280.046875 420.230469 278.578125 420.816406 276.730469 C 420.984375 273.675781 422.09375 251.5625 423.382812 249.433594 C 423.988281 248.277344 424.746094 247.121094 425.667969 246.203125 C 426.128906 245.757812 426.617188 245.351562 427.136719 245.117188 C 427.65625 244.871094 428.171875 244.710938 428.734375 244.710938 C 428.871094 244.695312 429.019531 244.734375 429.164062 244.734375 C 429.234375 244.738281 429.308594 244.738281 429.382812 244.746094 C 429.382812 244.746094 429.609375 244.796875 429.609375 244.796875 C 429.609375 244.796875 429.839844 244.839844 429.839844 244.839844 C 429.921875 244.859375 429.976562 244.863281 430.109375 244.894531 C 430.339844 244.953125 430.570312 245.007812 430.804688 245.066406 C 431.734375 245.289062 432.6875 245.507812 433.65625 245.726562 C 435.59375 246.164062 437.613281 246.601562 439.707031 247.050781 C 443.890625 247.949219 448.378906 248.882812 453.097656 249.921875 C 455.457031 250.441406 457.875 250.984375 460.3125 251.589844 C 461.535156 251.886719 462.753906 252.207031 463.964844 252.550781 C 465.160156 252.886719 466.390625 253.261719 467.390625 253.667969 C 467.503906 253.71875 467.652344 253.769531 467.742188 253.816406 C 467.742188 253.816406 468.023438 253.953125 468.023438 253.953125 C 468.054688 253.96875 468.046875 253.972656 468.0625 253.980469 C 468.066406 253.996094 468.074219 254.003906 468.082031 254.007812 C 468.085938 254.015625 468.101562 254.03125 468.09375 254.03125 C 468.105469 254.042969 468.179688 254.148438 468.226562 254.226562 C 468.335938 254.390625 468.460938 254.605469 468.585938 254.832031 C 469.085938 255.769531 469.566406 256.957031 470.003906 258.164062 C 470.445312 259.386719 470.851562 260.667969 471.234375 261.972656 C 471.328125 262.300781 471.421875 262.628906 471.515625 262.960938 C 471.613281 263.3125 471.710938 263.667969 471.808594 264.019531 C 471.972656 264.628906 472.164062 265.339844 472.332031 266.03125 C 472.5 266.726562 472.667969 267.425781 472.839844 268.125 C 477.046875 269 481.335938 269.894531 485.691406 270.804688 C 489.320312 271.546875 493.003906 272.304688 496.738281 273.070312 C 510.664062 275.902344 523.949219 278.5 536.054688 280.773438 C 539.078125 281.335938 542.03125 281.882812 544.898438 282.417969 C 545.617188 282.546875 546.328125 282.679688 547.035156 282.808594 C 547.386719 282.871094 547.742188 282.9375 548.089844 283 C 548.089844 283 548.617188 283.09375 548.617188 283.09375 C 548.710938 283.109375 548.828125 283.132812 548.964844 283.164062 C 550.050781 283.421875 551.167969 283.835938 552.097656 284.339844 C 553.039062 284.84375 553.820312 285.445312 554.367188 286.101562 C 554.914062 286.757812 555.242188 287.457031 555.390625 288.253906 C 555.429688 288.5 555.464844 288.808594 555.5 289.078125 C 555.535156 289.359375 555.574219 289.632812 555.597656 289.9375 C 555.648438 290.539062 555.707031 291.125 555.753906 291.71875 C 555.839844 292.910156 555.921875 294.082031 555.988281 295.234375 C 556.261719 299.84375 556.460938 304.050781 556.664062 307.738281 C 556.863281 311.429688 557.058594 329.851562 557.261719 332.453125 C 557.664062 337.65625 558.101562 340.539062 558.601562 340.546875 Z M 558.601562 340.546875 " fill-opacity="1" fill-rule="nonzero"/><path fill="#ffffff" d="M 389.25 354.542969 C 389.25 354.542969 388.726562 272.460938 388.726562 272.460938 C 388.726562 272.460938 388.203125 265.644531 399.21875 267.742188 C 399.21875 267.742188 400.265625 256.199219 410.234375 258.296875 C 420.203125 260.398438 446.429688 264.59375 449.054688 267.214844 C 451.675781 269.839844 454.300781 280.855469 454.300781 280.855469 C 454.300781 280.855469 525.90625 295.808594 525.90625 295.808594 C 525.90625 295.808594 533.777344 297.378906 534.5625 303.675781 C 535.347656 309.972656 535.519531 328.105469 535.519531 328.105469 " fill-opacity="1" fill-rule="nonzero"/><path fill="#000000" d="M 535.519531 366.824219 C 537.074219 366.84375 536.472656 325.207031 536.78125 319.96875 C 536.933594 317.347656 537.054688 314.144531 537.074219 310.402344 C 537.074219 308.523438 537.066406 306.53125 536.941406 304.339844 C 536.921875 304.0625 536.902344 303.78125 536.882812 303.5 C 536.878906 303.375 536.847656 303.175781 536.828125 303.007812 C 536.804688 302.835938 536.789062 302.660156 536.746094 302.488281 C 536.625 301.789062 536.402344 301.089844 536.117188 300.410156 C 535.53125 299.050781 534.617188 297.828125 533.546875 296.832031 C 532.472656 295.832031 531.257812 295.039062 529.972656 294.398438 C 529.328125 294.078125 528.664062 293.800781 527.976562 293.550781 C 527.628906 293.429688 527.277344 293.316406 526.902344 293.210938 C 526.902344 293.210938 526.605469 293.132812 526.605469 293.132812 C 526.605469 293.132812 526.316406 293.0625 526.316406 293.0625 C 526.316406 293.0625 525.855469 292.953125 525.855469 292.953125 C 523.375 292.367188 520.796875 291.757812 518.125 291.128906 C 512.78125 289.878906 507.0625 288.570312 501.042969 287.222656 C 489.003906 284.519531 475.746094 281.648438 461.804688 278.738281 C 460.664062 278.5 459.53125 278.265625 458.398438 278.03125 C 458.398438 278.03125 457.550781 277.855469 457.550781 277.855469 C 457.550781 277.855469 457.230469 277.789062 457.230469 277.789062 C 457.230469 277.789062 457.226562 277.789062 457.226562 277.789062 C 457.226562 277.789062 457.226562 277.789062 457.222656 277.789062 C 457.222656 277.789062 457.21875 277.789062 457.21875 277.789062 C 457.074219 277.277344 456.929688 276.765625 456.785156 276.253906 C 456.421875 275.027344 456.035156 273.808594 455.617188 272.589844 C 455.195312 271.371094 454.726562 270.148438 454.179688 268.910156 C 454.179688 268.910156 453.734375 267.96875 453.734375 267.96875 C 453.574219 267.652344 453.386719 267.320312 453.214844 266.996094 C 453.214844 266.996094 453.078125 266.753906 453.078125 266.753906 C 453.078125 266.753906 452.910156 266.492188 452.910156 266.492188 C 452.910156 266.492188 452.566406 265.96875 452.566406 265.96875 C 452.507812 265.882812 452.457031 265.800781 452.390625 265.710938 C 452.390625 265.710938 452.148438 265.410156 452.148438 265.410156 C 452.148438 265.410156 451.550781 264.722656 451.550781 264.722656 C 451.292969 264.515625 451.042969 264.296875 450.773438 264.105469 C 450.773438 264.105469 449.929688 263.589844 449.929688 263.589844 C 449.457031 263.359375 449.054688 263.179688 448.679688 263.039062 C 447.910156 262.734375 447.21875 262.519531 446.523438 262.304688 C 445.148438 261.894531 443.828125 261.5625 442.519531 261.25 C 439.902344 260.628906 437.359375 260.113281 434.863281 259.628906 C 429.875 258.671875 425.085938 257.863281 420.53125 257.105469 C 418.261719 256.730469 416.046875 256.359375 413.894531 256.003906 C 412.824219 255.816406 411.769531 255.632812 410.726562 255.449219 C 409.457031 255.214844 408.105469 255.136719 406.742188 255.300781 C 406.402344 255.335938 406.054688 255.414062 405.71875 255.476562 C 405.378906 255.550781 405.042969 255.65625 404.710938 255.75 C 404.378906 255.875 404.050781 255.988281 403.734375 256.136719 C 403.421875 256.292969 403.101562 256.429688 402.8125 256.617188 C 401.621094 257.320312 400.628906 258.246094 399.878906 259.226562 C 399.125 260.214844 398.566406 261.246094 398.140625 262.265625 C 397.933594 262.773438 397.75 263.285156 397.597656 263.789062 C 397.574219 263.851562 397.558594 263.914062 397.539062 263.980469 C 397.523438 264.039062 397.5 264.121094 397.5 264.125 C 397.5 264.125 397.480469 264.234375 397.480469 264.234375 C 397.46875 264.308594 397.457031 264.382812 397.445312 264.460938 C 397.417969 264.667969 397.398438 264.890625 397.390625 265.121094 C 397.402344 265.164062 397.363281 265.144531 397.34375 265.148438 C 397.34375 265.148438 397.269531 265.144531 397.269531 265.144531 C 397.269531 265.144531 397.117188 265.136719 397.117188 265.136719 C 397.015625 265.132812 396.910156 265.136719 396.800781 265.132812 C 396.703125 265.128906 396.601562 265.136719 396.5 265.140625 C 396.449219 265.140625 396.394531 265.144531 396.347656 265.148438 C 396.191406 265.148438 396.039062 265.148438 395.886719 265.148438 C 395.273438 265.152344 394.65625 265.195312 394.042969 265.273438 C 392.816406 265.433594 391.574219 265.765625 390.429688 266.40625 C 389.285156 267.03125 388.296875 268.042969 387.738281 269.167969 C 387.453125 269.730469 387.265625 270.308594 387.160156 270.878906 C 387.054688 271.449219 387.015625 272.007812 387.078125 272.621094 C 387.902344 279.914062 387.046875 325.308594 389.25 325.308594 C 391.097656 325.308594 390.222656 279.804688 390.382812 272.425781 C 390.394531 272.222656 390.453125 271.941406 390.542969 271.675781 C 390.628906 271.414062 390.757812 271.164062 390.910156 270.945312 C 391.226562 270.507812 391.640625 270.164062 392.234375 269.925781 C 392.824219 269.679688 393.578125 269.539062 394.429688 269.511719 C 394.855469 269.503906 395.300781 269.511719 395.765625 269.550781 C 395.765625 269.550781 396.117188 269.585938 396.117188 269.585938 C 396.339844 269.59375 396.558594 269.632812 396.78125 269.664062 C 397.230469 269.734375 397.683594 269.785156 398.144531 269.878906 C 398.335938 269.789062 398.527344 269.703125 398.71875 269.613281 C 398.910156 269.527344 399.125 269.421875 399.261719 269.375 C 399.417969 269.3125 399.574219 269.253906 399.730469 269.191406 C 399.730469 269.191406 399.96875 269.097656 399.96875 269.097656 C 400.042969 269.0625 400.140625 269.042969 400.171875 268.976562 C 400.527344 268.542969 401.015625 268.03125 401.746094 267.351562 C 401.746094 267.351562 401.859375 266.785156 401.859375 266.785156 C 401.859375 266.785156 402.003906 266.238281 402.003906 266.238281 C 402.050781 266.054688 402.109375 265.867188 402.167969 265.695312 C 402.167969 265.695312 402.234375 265.515625 402.234375 265.515625 C 402.25 265.46875 402.265625 265.425781 402.285156 265.382812 C 402.421875 265.027344 402.578125 264.679688 402.746094 264.34375 C 403.082031 263.671875 403.492188 263.058594 403.945312 262.542969 C 404.402344 262.023438 404.917969 261.636719 405.464844 261.355469 C 406.015625 261.078125 406.621094 260.921875 407.308594 260.882812 C 407.996094 260.847656 408.761719 260.917969 409.574219 261.117188 C 410.09375 261.238281 410.621094 261.355469 411.148438 261.480469 C 411.683594 261.597656 412.21875 261.71875 412.757812 261.835938 C 414.914062 262.308594 417.121094 262.773438 419.382812 263.242188 C 423.902344 264.183594 428.632812 265.148438 433.503906 266.222656 C 435.933594 266.761719 438.402344 267.324219 440.851562 267.957031 C 442.074219 268.277344 443.296875 268.609375 444.453125 268.980469 C 445.019531 269.167969 445.59375 269.359375 446.0625 269.558594 C 446.3125 269.652344 446.515625 269.761719 446.648438 269.820312 C 446.648438 269.820312 446.65625 269.828125 446.65625 269.828125 C 446.652344 269.839844 446.65625 269.835938 446.660156 269.839844 C 446.65625 269.835938 446.628906 269.8125 446.640625 269.832031 C 446.65625 269.847656 446.667969 269.863281 446.683594 269.875 C 446.683594 269.875 446.753906 269.988281 446.753906 269.988281 C 446.753906 269.988281 446.898438 270.21875 446.898438 270.21875 C 446.898438 270.21875 446.972656 270.335938 446.972656 270.335938 C 446.972656 270.335938 447.050781 270.484375 447.050781 270.484375 C 447.15625 270.691406 447.265625 270.882812 447.371094 271.101562 C 447.371094 271.101562 447.6875 271.796875 447.6875 271.796875 C 448.101562 272.765625 448.492188 273.8125 448.859375 274.898438 C 449.21875 275.988281 449.566406 277.105469 449.890625 278.246094 C 449.890625 278.246094 450.128906 279.101562 450.128906 279.101562 C 450.128906 279.101562 450.445312 280.28125 450.445312 280.28125 C 450.753906 281.476562 451.046875 282.695312 451.339844 283.914062 C 454.3125 284.535156 457.3125 285.167969 460.335938 285.800781 C 474.277344 288.710938 487.582031 291.386719 499.703125 293.730469 C 505.761719 294.902344 511.527344 295.992188 516.925781 296.984375 C 519.625 297.476562 522.230469 297.949219 524.738281 298.40625 C 524.738281 298.40625 525.210938 298.488281 525.210938 298.488281 C 525.210938 298.488281 525.386719 298.519531 525.386719 298.519531 C 525.386719 298.519531 525.550781 298.550781 525.550781 298.550781 C 525.785156 298.601562 526.035156 298.667969 526.28125 298.738281 C 526.777344 298.882812 527.269531 299.050781 527.730469 299.242188 C 528.660156 299.632812 529.492188 300.109375 530.171875 300.652344 C 530.847656 301.199219 531.367188 301.804688 531.722656 302.460938 C 531.890625 302.792969 532.039062 303.132812 532.136719 303.492188 C 532.167969 303.578125 532.179688 303.675781 532.203125 303.765625 C 532.222656 303.867188 532.246094 303.925781 532.265625 304.066406 C 532.300781 304.316406 532.339844 304.5625 532.375 304.808594 C 532.664062 306.796875 532.855469 308.769531 533.046875 310.59375 C 533.40625 314.257812 533.699219 317.4375 533.976562 320.035156 C 534.527344 325.230469 532.890625 367.941406 535.519531 366.824219 Z M 535.519531 366.824219 " fill-opacity="1" fill-rule="nonzero"/><path stroke-linecap="round" transform="matrix(0.302418, 0, 0, 0.302418, 383.829651, 280.855791)" fill-opacity="1" fill="#000000" fill-rule="nonzero" stroke-linejoin="round" d="M -18.501799 7.51647 C -18.501799 7.51647 16.773784 -15.617389 16.773784 -15.617389 C 16.773784 -15.617389 18.504626 15.615258 18.504626 15.615258 C 18.504626 15.615258 -18.501799 7.51647 -18.501799 7.51647 Z M -18.501799 7.51647 " stroke="#000000" stroke-width="0.6" stroke-opacity="1" stroke-miterlimit="4"/><path fill="#ffffff" d="M 378.234375 282.953125 C 378.234375 282.953125 378.234375 387.171875 378.234375 387.171875 C 378.234375 387.171875 531.039062 424.53125 531.039062 424.53125 C 534.078125 425.277344 537.011719 422.976562 537.011719 419.847656 C 537.011719 419.847656 537.011719 317.226562 537.011719 317.226562 C 537.011719 317.226562 378.234375 282.953125 378.234375 282.953125 Z M 378.234375 282.953125 " fill-opacity="1" fill-rule="nonzero"/><path fill="#ffffff" d="M 537.011719 317.226562 C 537.011719 317.226562 648.117188 256.21875 648.117188 256.21875 C 649.414062 255.507812 650.992188 256.460938 650.96875 257.9375 C 650.96875 257.9375 649.445312 357.972656 649.445312 357.972656 C 649.445312 357.972656 541.171875 423.644531 541.171875 423.644531 C 539.3125 424.691406 537.011719 423.347656 537.011719 421.214844 C 537.011719 421.214844 537.011719 317.226562 537.011719 317.226562 Z M 537.011719 317.226562 " fill-opacity="1" fill-rule="nonzero"/><path fill="#000000" d="M 378.234375 282.953125 C 378.140625 283.378906 382.140625 284.671875 389.652344 286.695312 C 397.160156 288.71875 408.175781 291.472656 422.117188 294.824219 C 436.058594 298.179688 452.921875 302.125 472.128906 306.535156 C 481.738281 308.722656 491.925781 311.042969 502.625 313.476562 C 512.355469 315.671875 522.550781 317.964844 533.140625 320.351562 C 533.140625 320.351562 533.121094 320.597656 533.121094 320.597656 C 533.113281 321.503906 533.105469 322.410156 533.101562 323.320312 C 533.089844 325.363281 533.074219 327.421875 533.0625 329.488281 C 533.042969 333.625 533.019531 337.8125 532.996094 342.039062 C 532.960938 350.5 532.925781 359.140625 532.890625 367.941406 C 532.867188 376.742188 532.847656 385.699219 532.824219 394.792969 C 532.820312 399.335938 532.8125 403.917969 532.808594 408.527344 C 532.808594 410.832031 532.804688 413.148438 532.804688 415.46875 C 532.804688 416.628906 532.804688 417.789062 532.804688 418.953125 C 532.804688 418.953125 532.804688 419.828125 532.804688 419.828125 C 532.796875 419.882812 532.792969 419.878906 532.792969 419.90625 C 532.804688 419.929688 532.789062 419.945312 532.785156 419.964844 C 532.773438 420.035156 532.761719 420.097656 532.714844 420.15625 C 532.714844 420.171875 532.703125 420.183594 532.691406 420.195312 C 532.679688 420.203125 532.675781 420.21875 532.667969 420.234375 C 532.632812 420.246094 532.632812 420.289062 532.597656 420.300781 C 532.554688 420.355469 532.488281 420.371094 532.4375 420.410156 C 532.320312 420.445312 532.226562 420.484375 532.09375 420.449219 C 532.078125 420.445312 532.0625 420.445312 532.042969 420.445312 C 532.042969 420.445312 531.707031 420.367188 531.707031 420.367188 C 531.707031 420.367188 531.011719 420.195312 531.011719 420.195312 C 531.011719 420.195312 529.617188 419.855469 529.617188 419.855469 C 528.691406 419.628906 527.765625 419.40625 526.839844 419.179688 C 523.144531 418.277344 519.464844 417.382812 515.808594 416.492188 C 508.492188 414.71875 501.261719 412.96875 494.128906 411.238281 C 479.859375 407.8125 465.988281 404.476562 452.609375 401.265625 C 439.222656 398.089844 426.332031 395.03125 414.039062 392.117188 C 407.890625 390.675781 401.890625 389.265625 396.050781 387.898438 C 393.128906 387.214844 390.25 386.546875 387.414062 385.882812 C 385.992188 385.554688 384.585938 385.226562 383.1875 384.902344 C 382.863281 384.828125 382.542969 384.753906 382.222656 384.679688 C 382.222656 384.679688 382.007812 384.640625 382.007812 384.640625 C 381.859375 384.613281 381.714844 384.585938 381.566406 384.558594 C 381.554688 384.351562 381.542969 384.148438 381.53125 383.945312 C 381.515625 383.058594 381.503906 382.175781 381.492188 381.296875 C 381.46875 379.359375 381.441406 377.445312 381.417969 375.554688 C 381.363281 371.773438 381.308594 368.085938 381.257812 364.496094 C 381.136719 357.3125 381.019531 350.515625 380.910156 344.144531 C 380.667969 331.402344 380.402344 320.355469 380.121094 311.292969 C 379.554688 293.160156 378.910156 282.953125 378.234375 282.953125 C 377.554688 282.953125 376.914062 293.160156 376.347656 311.292969 C 376.066406 320.355469 375.800781 331.402344 375.554688 344.144531 C 375.449219 350.515625 375.332031 357.3125 375.210938 364.496094 C 375.160156 368.085938 375.105469 371.773438 375.050781 375.554688 C 375.027344 377.445312 375 379.359375 374.976562 381.296875 C 374.964844 382.355469 374.949219 383.417969 374.9375 384.492188 C 374.925781 386.246094 374.914062 388.011719 374.902344 389.789062 C 386.652344 392.78125 399.148438 395.960938 412.28125 399.308594 C 424.535156 402.390625 437.378906 405.628906 450.722656 408.988281 C 464.074219 412.308594 477.917969 415.753906 492.160156 419.296875 C 499.285156 421.054688 506.507812 422.835938 513.816406 424.636719 C 517.472656 425.535156 521.148438 426.4375 524.84375 427.34375 C 525.769531 427.570312 526.695312 427.800781 527.621094 428.027344 C 527.621094 428.027344 529.011719 428.367188 529.011719 428.367188 C 529.011719 428.367188 529.707031 428.539062 529.707031 428.539062 C 529.707031 428.539062 530.070312 428.625 530.070312 428.625 C 530.289062 428.671875 530.503906 428.710938 530.722656 428.75 C 532.480469 429.0625 534.363281 428.785156 535.988281 428.039062 C 536.792969 427.648438 537.558594 427.167969 538.21875 426.558594 C 538.5625 426.273438 538.851562 425.929688 539.152344 425.597656 C 539.292969 425.421875 539.425781 425.238281 539.558594 425.054688 C 539.691406 424.875 539.816406 424.6875 539.925781 424.492188 C 540.5 423.558594 540.886719 422.5 541.070312 421.425781 C 541.117188 421.15625 541.167969 420.886719 541.179688 420.617188 C 541.195312 420.355469 541.210938 420.058594 541.21875 419.828125 C 541.21875 419.828125 541.21875 418.953125 541.21875 418.953125 C 541.214844 417.789062 541.214844 416.628906 541.214844 415.46875 C 541.214844 413.148438 541.214844 410.832031 541.210938 408.527344 C 541.207031 403.917969 541.199219 399.335938 541.195312 394.792969 C 541.171875 385.699219 541.152344 376.742188 541.128906 367.941406 C 541.042969 349.257812 540.960938 331.246094 540.878906 314.105469 C 536.929688 313.273438 533.015625 312.449219 529.144531 311.636719 C 526.277344 311.039062 523.4375 310.449219 520.628906 309.867188 C 515.011719 308.707031 509.511719 307.570312 504.140625 306.460938 C 493.390625 304.265625 483.152344 302.175781 473.496094 300.207031 C 454.179688 296.296875 437.1875 292.9375 423.105469 290.242188 C 409.023438 287.542969 397.851562 285.511719 390.175781 284.257812 C 382.503906 283.003906 378.324219 282.53125 378.234375 282.953125 Z M 378.234375 282.953125 " fill-opacity="1" fill-rule="nonzero"/><path fill="#000000" d="M 650.757812 252.789062 C 649.972656 252.789062 629.511719 248.332031 629.511719 248.332031 C 629.511719 248.332031 628.464844 268.789062 628.464844 268.789062 C 628.464844 268.789062 650.757812 252.789062 650.757812 252.789062 Z M 650.757812 252.789062 " fill-opacity="1" fill-rule="nonzero"/><path fill="#000000" d="M 466.355469 347.703125 C 466.355469 347.703125 429.25 337.113281 429.25 337.113281 C 426.320312 336.277344 424.242188 333.667969 424.089844 330.621094 C 423.855469 325.945312 428.121094 322.316406 432.703125 323.300781 C 432.703125 323.300781 470.105469 331.335938 470.105469 331.335938 C 473.695312 332.105469 476.109375 335.480469 475.683594 339.128906 C 475.683594 339.128906 475.386719 341.679688 475.386719 341.679688 C 474.875 346.042969 470.578125 348.90625 466.355469 347.703125 Z M 466.355469 347.703125 " fill-opacity="1" fill-rule="nonzero"/><path fill="#000000" d="M 466.355469 347.703125 C 466.320312 347.820312 466.394531 347.964844 466.582031 348.132812 C 466.675781 348.214844 466.800781 348.304688 466.957031 348.398438 C 467.109375 348.5 467.300781 348.566406 467.519531 348.652344 C 467.628906 348.695312 467.75 348.738281 467.875 348.777344 C 468 348.8125 468.136719 348.839844 468.28125 348.867188 C 468.425781 348.894531 468.578125 348.921875 468.738281 348.953125 C 468.898438 348.972656 469.066406 348.976562 469.242188 348.988281 C 469.949219 349.035156 470.777344 348.941406 471.683594 348.675781 C 472.59375 348.410156 473.566406 347.925781 474.488281 347.171875 C 475.402344 346.417969 476.265625 345.378906 476.863281 344.066406 C 477.019531 343.742188 477.125 343.394531 477.253906 343.042969 C 477.363281 342.683594 477.441406 342.3125 477.527344 341.933594 C 477.640625 341.347656 477.757812 340.742188 477.878906 340.121094 C 477.90625 339.964844 477.9375 339.808594 477.964844 339.648438 C 477.964844 339.648438 478.011719 339.410156 478.011719 339.410156 C 478.011719 339.410156 478.050781 339.09375 478.050781 339.09375 C 478.078125 338.878906 478.105469 338.664062 478.121094 338.445312 C 478.128906 338.222656 478.132812 338 478.136719 337.777344 C 478.125 336.882812 478 335.953125 477.714844 335.039062 C 477.136719 333.226562 475.992188 331.445312 474.265625 330.171875 C 473.410156 329.535156 472.425781 329.019531 471.363281 328.679688 C 471.363281 328.679688 470.957031 328.558594 470.957031 328.558594 C 470.957031 328.558594 470.753906 328.5 470.753906 328.5 C 470.753906 328.5 470.597656 328.460938 470.597656 328.460938 C 470.402344 328.410156 470.207031 328.359375 470.011719 328.308594 C 469.617188 328.207031 469.222656 328.101562 468.820312 328 C 465.621094 327.179688 462.191406 326.332031 458.582031 325.460938 C 451.359375 323.722656 443.394531 321.910156 435.015625 320.109375 C 434.488281 319.996094 433.964844 319.882812 433.445312 319.773438 C 433.050781 319.707031 432.660156 319.644531 432.265625 319.59375 C 431.871094 319.558594 431.46875 319.550781 431.070312 319.542969 C 429.46875 319.5625 427.886719 319.957031 426.484375 320.65625 C 425.082031 321.355469 423.855469 322.355469 422.894531 323.558594 C 421.933594 324.757812 421.242188 326.167969 420.886719 327.640625 C 420.886719 327.640625 420.753906 328.195312 420.753906 328.195312 C 420.71875 328.378906 420.699219 328.570312 420.675781 328.753906 C 420.632812 329.128906 420.574219 329.503906 420.585938 329.871094 C 420.570312 330.613281 420.605469 331.359375 420.75 332.085938 C 421.011719 333.542969 421.597656 334.914062 422.402344 336.109375 C 423.21875 337.296875 424.261719 338.304688 425.449219 339.054688 C 425.75 339.238281 426.046875 339.421875 426.363281 339.570312 C 426.671875 339.734375 426.992188 339.867188 427.316406 339.992188 C 427.632812 340.125 427.96875 340.210938 428.296875 340.3125 C 428.523438 340.375 428.753906 340.433594 428.984375 340.492188 C 436.175781 342.355469 442.679688 343.9375 448.171875 345.164062 C 459.152344 347.621094 466.082031 348.660156 466.355469 347.703125 C 466.628906 346.742188 460.195312 343.96875 449.570312 340.261719 C 444.257812 338.40625 437.898438 336.316406 430.808594 334.101562 C 430.589844 334.035156 430.371094 333.964844 430.152344 333.898438 C 430.039062 333.84375 429.914062 333.820312 429.804688 333.757812 C 429.695312 333.707031 429.582031 333.65625 429.476562 333.585938 C 429.363281 333.535156 429.265625 333.453125 429.160156 333.386719 C 428.753906 333.101562 428.410156 332.722656 428.140625 332.296875 C 427.886719 331.867188 427.695312 331.390625 427.632812 330.886719 C 427.585938 330.640625 427.597656 330.382812 427.609375 330.125 C 427.597656 329.992188 427.640625 329.871094 427.652344 329.742188 C 427.664062 329.683594 427.664062 329.617188 427.679688 329.554688 C 427.699219 329.496094 427.71875 329.4375 427.734375 329.375 C 427.992188 328.414062 428.714844 327.539062 429.65625 327.09375 C 430.125 326.867188 430.632812 326.75 431.148438 326.746094 C 431.28125 326.757812 431.410156 326.753906 431.542969 326.761719 C 431.671875 326.789062 431.804688 326.8125 431.941406 326.824219 C 432.457031 326.9375 432.980469 327.046875 433.5 327.160156 C 441.882812 328.960938 449.886719 330.578125 457.1875 331.957031 C 460.835938 332.648438 464.308594 333.28125 467.566406 333.847656 C 467.972656 333.917969 468.375 333.988281 468.777344 334.058594 C 468.976562 334.09375 469.175781 334.125 469.375 334.160156 C 469.375 334.160156 469.511719 334.183594 469.511719 334.183594 C 469.511719 334.183594 469.597656 334.203125 469.597656 334.203125 C 469.597656 334.203125 469.773438 334.238281 469.773438 334.238281 C 470.238281 334.335938 470.679688 334.507812 471.085938 334.738281 C 471.90625 335.203125 472.523438 335.949219 472.914062 336.761719 C 473.105469 337.171875 473.222656 337.605469 473.296875 338.039062 C 473.308594 338.148438 473.324219 338.257812 473.339844 338.367188 C 473.347656 338.476562 473.34375 338.585938 473.347656 338.699219 C 473.347656 338.699219 473.355469 338.867188 473.355469 338.867188 C 473.355469 338.867188 473.34375 339.109375 473.34375 339.109375 C 473.335938 339.269531 473.328125 339.425781 473.320312 339.585938 C 473.292969 340.21875 473.265625 340.835938 473.242188 341.429688 C 473.222656 341.636719 473.21875 341.851562 473.199219 342.054688 C 473.152344 342.253906 473.140625 342.460938 473.085938 342.652344 C 472.699219 344.21875 471.644531 345.425781 470.570312 346.097656 C 469.492188 346.804688 468.421875 347.046875 467.667969 347.207031 C 467.480469 347.238281 467.300781 347.296875 467.152344 347.320312 C 467 347.34375 466.867188 347.375 466.753906 347.414062 C 466.53125 347.488281 466.390625 347.582031 466.355469 347.703125 Z M 466.355469 347.703125 " fill-opacity="1" fill-rule="nonzero"/><path fill="#000000" d="M 537.011719 317.226562 C 536.429688 317.226562 535.875 323.765625 535.371094 335.585938 C 534.871094 347.410156 534.414062 364.515625 534.035156 385.65625 C 533.949219 390.941406 533.859375 396.476562 533.761719 402.246094 C 533.722656 405.132812 533.679688 408.074219 533.640625 411.074219 C 533.617188 412.570312 533.597656 414.085938 533.578125 415.613281 C 533.570312 416.375 533.558594 417.140625 533.550781 417.914062 C 533.546875 418.398438 533.539062 418.890625 533.535156 419.378906 C 533.535156 419.378906 533.527344 420.441406 533.527344 420.441406 C 533.527344 420.441406 533.523438 420.972656 533.523438 420.972656 C 533.523438 420.972656 533.550781 421.496094 533.550781 421.496094 C 533.558594 421.851562 533.617188 422.171875 533.675781 422.492188 C 533.675781 422.492188 533.722656 422.734375 533.722656 422.734375 C 533.722656 422.734375 533.785156 422.957031 533.785156 422.957031 C 533.824219 423.105469 533.878906 423.25 533.925781 423.390625 C 534.015625 423.683594 534.15625 423.957031 534.285156 424.238281 C 534.445312 424.503906 534.597656 424.773438 534.792969 425.023438 C 535.53125 426.039062 536.621094 426.828125 537.835938 427.226562 C 537.988281 427.269531 538.136719 427.332031 538.292969 427.363281 C 538.292969 427.363281 538.761719 427.464844 538.761719 427.464844 C 539.078125 427.503906 539.394531 427.546875 539.710938 427.546875 C 540.34375 427.554688 540.964844 427.476562 541.570312 427.292969 C 542.191406 427.105469 542.84375 426.832031 543.476562 426.4375 C 544.09375 426.070312 544.710938 425.699219 545.332031 425.328125 C 548.09375 423.691406 550.898438 422.03125 553.75 420.34375 C 559.4375 416.957031 565.296875 413.472656 571.300781 409.902344 C 595.3125 395.589844 621.648438 379.753906 649.226562 363.023438 C 650.695312 362.136719 652.15625 361.246094 653.617188 360.359375 C 653.753906 350.800781 653.886719 341.367188 654.019531 332.085938 C 654.121094 323.570312 654.21875 315.199219 654.320312 306.992188 C 654.402344 298.785156 654.480469 290.742188 654.558594 282.894531 C 654.628906 274.441406 654.695312 266.199219 654.761719 258.1875 C 654.769531 257.019531 654.460938 256.039062 654.097656 255.332031 C 654.015625 255.132812 653.90625 254.972656 653.796875 254.792969 C 653.683594 254.613281 653.550781 254.4375 653.410156 254.261719 C 653.125 253.914062 652.773438 253.585938 652.382812 253.308594 C 651.613281 252.742188 650.664062 252.398438 649.804688 252.300781 C 649.804688 252.300781 649.488281 252.277344 649.488281 252.277344 C 649.488281 252.277344 649.1875 252.269531 649.1875 252.269531 C 648.984375 252.269531 648.773438 252.296875 648.570312 252.308594 C 648.371094 252.308594 648.128906 252.375 647.90625 252.414062 C 647.792969 252.4375 647.683594 252.453125 647.5625 252.484375 C 647.5625 252.484375 647.203125 252.605469 647.203125 252.605469 C 647.203125 252.605469 646.839844 252.726562 646.839844 252.726562 C 646.839844 252.726562 646.46875 252.902344 646.46875 252.902344 C 646.34375 252.964844 646.21875 253.019531 646.097656 253.082031 C 646.097656 253.082031 645.722656 253.289062 645.722656 253.289062 C 645.230469 253.5625 644.734375 253.839844 644.242188 254.113281 C 643.507812 254.523438 642.777344 254.929688 642.050781 255.335938 C 641.011719 255.921875 639.980469 256.5 638.953125 257.078125 C 634.847656 259.390625 630.835938 261.652344 626.914062 263.863281 C 619.089844 268.300781 611.644531 272.523438 604.628906 276.503906 C 590.617188 284.488281 578.367188 291.554688 568.28125 297.464844 C 548.113281 309.285156 536.609375 316.492188 537.011719 317.226562 C 537.414062 317.960938 549.667969 312.121094 570.46875 301.445312 C 580.871094 296.109375 593.40625 289.566406 607.664062 282.027344 C 614.785156 278.246094 622.34375 274.230469 630.289062 270.007812 C 634.257812 267.886719 638.320312 265.714844 642.476562 263.492188 C 643.511719 262.9375 644.558594 262.378906 645.605469 261.816406 C 645.605469 261.816406 646.394531 261.394531 646.394531 261.394531 C 646.484375 261.34375 646.464844 261.355469 646.476562 261.347656 C 646.476562 261.347656 646.503906 261.339844 646.503906 261.339844 C 646.503906 261.339844 646.550781 261.316406 646.550781 261.316406 C 646.550781 261.316406 646.734375 261.234375 646.734375 261.234375 C 646.796875 261.210938 646.847656 261.179688 646.910156 261.167969 C 646.972656 261.15625 647.039062 261.183594 647.082031 261.230469 C 647.183594 261.335938 647.121094 261.492188 647.117188 261.609375 C 647.117188 261.609375 647.105469 261.75 647.105469 261.75 C 647.105469 261.75 647.101562 261.78125 647.101562 261.78125 C 647.101562 261.78125 647.097656 261.796875 647.097656 261.796875 C 647.097656 261.796875 647.09375 261.9375 647.09375 261.9375 C 647.09375 261.9375 647.078125 262.640625 647.078125 262.640625 C 647.058594 263.574219 647.035156 264.515625 647.011719 265.457031 C 646.96875 267.34375 646.925781 269.242188 646.882812 271.152344 C 646.796875 274.976562 646.710938 278.851562 646.625 282.773438 C 646.464844 290.621094 646.296875 298.660156 646.128906 306.867188 C 645.980469 315.070312 645.824219 323.445312 645.667969 331.960938 C 645.539062 339.710938 645.410156 347.59375 645.277344 355.582031 C 645.277344 355.582031 645.277344 355.578125 645.277344 355.578125 C 645.277344 355.578125 644.863281 355.828125 644.863281 355.828125 C 617.285156 372.558594 591.070312 388.597656 567.28125 403.273438 C 561.339844 406.949219 555.542969 410.535156 549.910156 414.015625 C 547.097656 415.761719 544.328125 417.484375 541.597656 419.175781 C 541.597656 419.175781 541.535156 419.214844 541.535156 419.214844 C 541.535156 419.214844 541.523438 419.222656 541.523438 419.222656 C 541.523438 419.222656 541.507812 419.234375 541.507812 419.234375 C 541.507812 419.234375 541.472656 419.261719 541.472656 419.261719 C 541.472656 419.261719 541.398438 419.3125 541.398438 419.3125 C 541.398438 419.3125 541.246094 419.421875 541.246094 419.421875 C 541.148438 419.496094 541.015625 419.539062 540.890625 419.519531 C 540.769531 419.496094 540.648438 419.429688 540.582031 419.324219 C 540.503906 419.21875 540.511719 419.085938 540.5 418.957031 C 540.5 418.957031 540.484375 418.761719 540.484375 418.761719 C 540.484375 418.761719 540.480469 418.710938 540.480469 418.710938 C 540.480469 418.710938 540.480469 418.699219 540.480469 418.699219 C 540.480469 418.699219 540.480469 418.636719 540.480469 418.636719 C 540.480469 418.636719 540.476562 418.492188 540.476562 418.492188 C 540.476562 418.492188 540.46875 417.914062 540.46875 417.914062 C 540.460938 417.140625 540.449219 416.375 540.441406 415.613281 C 540.421875 414.085938 540.402344 412.570312 540.382812 411.074219 C 540.339844 408.074219 540.296875 405.132812 540.257812 402.246094 C 540.164062 396.476562 540.070312 390.941406 539.984375 385.65625 C 539.605469 364.515625 539.152344 347.410156 538.648438 335.585938 C 538.144531 323.765625 537.589844 317.226562 537.011719 317.226562 Z M 537.011719 317.226562 " fill-opacity="1" fill-rule="nonzero"/><path stroke-linecap="round" transform="matrix(0.302418, 0, 0, 0.302418, 571.243457, 386.369398)" fill-opacity="1" fill="#000000" fill-rule="nonzero" stroke-linejoin="round" d="M -367.149258 76.265967 C -367.149258 76.265967 -99.876334 157.395932 -60.661149 152.78466 C 21.592571 143.110031 292.055927 -56.28549 321.454398 -74.536826 C 371.622968 -105.679056 409.107311 -127.598742 273.003754 -152.967195 C 273.003754 -152.967195 246.472796 -84.056454 246.472796 -84.056454 C 246.472796 -84.056454 -99.669666 125.03953 -99.669666 125.03953 C -99.669666 125.03953 -196.441788 114.331562 -196.441788 114.331562 C -196.441788 114.331562 -367.149258 76.265967 -367.149258 76.265967 Z M -367.149258 76.265967 " stroke="#000000" stroke-width="0.1" stroke-opacity="1" stroke-miterlimit="4"/></svg>